# xmcd
#
# Track frame offsets: 
#        150
#        20492
#        35471
#        46106
#        54708
#        67372
#        78699
#        91008
#        105626
#        120419
#
# Disc length: 1792 seconds
#
# Revision: 3
# Processed by: cddbd v1.5.2PL0 Copyright (c) Steve Scherf et al.
# Submitted via: ExactAudioCopy v1.1
#
DISCID=7f06fe0a
DTITLE=The Animals - The Very Best Of The Animals
DYEAR=2012
DGENRE=Rock
TTITLE0=House Of The Rising Sun
TTITLE1=Boom Boom
TTITLE2=Baby Let Me Take You Home
TTITLE3=Talkin' 'Bout You
TTITLE4=I'm Crying
TTITLE5=Don't Let Me Be Misunderstood
TTITLE6=Bring It On Home to Me
TTITLE7=We Gotta Get Out Of This Place (US Version)
TTITLE8=Don't Bring Me Down
TTITLE9=It's My Life
EXTD=
EXTT0=
EXTT1=
EXTT2=
EXTT3=
EXTT4=
EXTT5=
EXTT6=
EXTT7=
EXTT8=
EXTT9=
PLAYORDER=
